# xmcd
#
# Track frame offsets:
#	182
#	18975
#	43435
#	68785
#	87675
#	100567
#	123657
#	140555
#	156537
#	177130
#	192457
#	203472
#
# Disc length: 2954 seconds
#
# Revision: 2
# Processed by: cddbd v1.4PL0 Copyright (c) Steve Scherf et al.
# Submitted via: audiograbber 1.81.03
#
DISCID=ae0b880c
DTITLE=Michael Martin Murphey - The Best Of Michael Martin Murphey
DYEAR=1982
DGENRE=Easy Listening
TTITLE0=Carolina In The Pines
TTITLE1=Geronimo's Cadillac
TTITLE2=Cherokee Fiddle
TTITLE3=Still Taking Chances
TTITLE4=What's Forever For
TTITLE5=Wildfire
TTITLE6=What She Wants
TTITLE7=Love Affairs
TTITLE8=Disenchanted
TTITLE9=Don't Count the Rainy Days
TTITLE10=Will It Be Love By Morning
TTITLE11=Radio Land
EXTD=
EXTT0=
EXTT1=
EXTT2=
EXTT3=
EXTT4=
EXTT5=
EXTT6=
EXTT7=
EXTT8=
EXTT9=
EXTT10=
EXTT11=
PLAYORDER=
